<svg xmlns="http://www.w3.org/2000/svg" width="218" height="46" viewBox="0 0 218 46" fill="none"><g clip-path="url(#clip0_543_537)"><path d="M22.9103 4.02762e-06C19.8772 -0.039098 16.8665 0.52693 14.053 1.66525C11.2395 2.80356 8.67911 4.4915 6.52046 6.63113C4.36181 8.77076 2.64785 11.3195 1.47804 14.1294C0.308224 16.9393 -0.294159 19.9545 -0.294159 23C-0.294159 26.0455 0.308224 29.0607 1.47804 31.8706C2.64785 34.6805 4.36181 37.2293 6.52046 39.3689C8.67911 41.5085 11.2395 43.1965 14.053 44.3348C16.8665 45.4731 19.8772 46.0391 22.9103 46L22.8801 45.8787C21.68 41.1654 18.8518 37.0331 14.8996 34.2185C12.5283 32.5121 10.7591 30.0925 9.84801 27.3098C8.93695 24.5271 8.93126 21.5256 9.83177 18.7394C10.7323 15.9532 12.4923 13.5269 14.8572 11.8115C17.2221 10.0961 20.0692 9.18049 22.9867 9.1972C25.9041 9.21391 28.7407 10.162 31.0859 11.9044C33.4312 13.6468 35.1635 16.0932 36.0323 18.8895C36.9011 21.6858 36.8613 24.6871 35.9186 27.4591C34.976 30.2312 33.1794 32.6304 30.7888 34.3095C26.872 37.0943 24.0857 41.2029 22.9405 45.8825L22.9103 46.0038C28.9865 46.0038 34.8139 43.5804 39.1104 39.2667C43.4069 34.953 45.8207 29.1024 45.8207 23.0019C45.8207 16.9014 43.4069 11.0508 39.1104 6.7371C34.8139 2.42341 28.9865 4.02762e-06 22.9103 4.02762e-06Z" fill="#E6EAED"></path><path d="M174.215 14.1212H178.029H190.95V9.91971H174.215V14.1212Z" fill="#E6EAED"></path><path d="M94.761 25.9179C94.7024 27.6711 93.9605 29.3311 92.6951 30.5406C91.4296 31.7501 89.7418 32.4125 87.9948 32.3852C86.2478 32.3578 84.5813 31.643 83.3541 30.3944C82.1268 29.1459 81.4368 27.4635 81.4326 25.7093V9.92349H77.0476V27.9087C77.0663 30.2295 77.9881 32.451 79.616 34.0988C81.244 35.7466 83.4491 36.6901 85.7605 36.7277C88.0719 36.7653 90.3063 35.8941 91.9866 34.3002C93.6669 32.7062 94.6599 30.5159 94.7535 28.1968V31.6323C94.754 32.2098 94.8678 32.7815 95.0885 33.3148C95.3092 33.848 95.6324 34.3324 96.0396 34.7402C96.4468 35.148 96.9301 35.4712 97.4618 35.6914C97.9935 35.9116 98.5632 36.0244 99.1384 36.0234V9.92349H94.761V25.9179Z" fill="#E6EAED"></path><path d="M213.014 25.9179C212.955 27.6711 212.214 29.3311 210.948 30.5406C209.683 31.7501 207.995 32.4125 206.248 32.3852C204.501 32.3578 202.834 31.643 201.607 30.3944C200.38 29.1459 199.69 27.4635 199.686 25.7093V9.92349H195.289V27.9087C195.289 29.0764 195.518 30.2327 195.964 31.3115C196.409 32.3903 197.061 33.3706 197.883 34.1963C199.544 35.8639 201.797 36.8007 204.146 36.8007C206.448 36.8059 208.662 35.9103 210.318 34.304C211.973 32.6978 212.94 30.5072 213.014 28.1968V31.6323C213.015 32.794 213.474 33.908 214.291 34.7308C215.108 35.5537 216.216 36.0184 217.373 36.0234V9.92349H213.014V25.9179Z" fill="#E6EAED"></path><path d="M71.7865 24.1167C70.3538 22.8907 68.1909 21.925 65.2979 21.2197C63.4246 20.7571 62.109 20.2072 61.3511 19.5702C60.976 19.2522 60.6787 18.8519 60.4823 18.4002C60.2858 17.9485 60.1954 17.4575 60.218 16.9651C60.1927 16.4626 60.2878 15.9613 60.4955 15.5034C60.7032 15.0455 61.0173 14.6443 61.4115 14.3335C62.2046 13.7117 63.3075 13.4007 64.72 13.4007C65.5363 13.4035 66.3511 13.4732 67.1561 13.6093H67.2241C68.2845 13.8755 69.4043 13.7603 70.3889 13.2837C71.3735 12.8071 72.1607 11.9992 72.6136 11.0004C71.4546 10.4392 70.2374 10.0081 68.9841 9.71495C67.5358 9.36366 66.0513 9.18546 64.5614 9.18408C61.7363 9.18408 59.513 9.81607 57.8915 11.0801C56.27 12.344 55.4542 14.1275 55.4441 16.4305C55.4441 18.4882 56.0358 20.1023 57.2192 21.2728C58.4026 22.4432 60.4421 23.3647 63.3377 24.0371C65.2463 24.4618 66.6689 25.0445 67.6055 25.7852C68.0626 26.1356 68.4286 26.5916 68.6726 27.1145C68.9165 27.6373 69.0312 28.2116 69.0067 28.7884C69.0067 30.1004 68.5309 31.0572 67.5791 31.6589C66.4529 32.3067 65.167 32.6209 63.8702 32.5652C60.7621 32.5592 57.7043 31.7773 54.972 30.29V34.8858C56.196 35.5135 57.496 35.9787 58.8395 36.2699C60.4911 36.6371 62.1786 36.8164 63.8702 36.8046C66.9395 36.8046 69.3844 36.1309 71.2049 34.7835C73.0253 33.4361 73.9355 31.5565 73.9355 29.1448C73.933 27.0163 73.2167 25.3403 71.7865 24.1167Z" fill="#E6EAED"></path><path d="M170.389 24.1167C168.958 22.8932 166.801 21.9326 163.915 21.2349C162.042 20.7722 160.726 20.2224 159.968 19.5854C159.593 19.2674 159.296 18.8671 159.099 18.4154C158.903 17.9637 158.813 17.4727 158.835 16.9803C158.809 16.4781 158.904 15.9769 159.111 15.5189C159.318 15.0609 159.631 14.6596 160.025 14.3487C160.823 13.7268 161.927 13.4159 163.337 13.4159C164.152 13.4187 164.966 13.4884 165.77 13.6244H165.838C166.898 13.8906 168.018 13.7754 169.002 13.2988C169.987 12.8222 170.774 12.0144 171.227 11.0156C170.069 10.4543 168.853 10.0232 167.601 9.73012C166.147 9.37755 164.656 9.19935 163.16 9.19925C160.335 9.19925 158.11 9.83124 156.486 11.0952C154.862 12.3592 154.05 14.1401 154.05 16.4381C154.05 18.4958 154.64 20.1099 155.821 21.2804C157.002 22.4508 159.042 23.3723 161.94 24.0447C163.848 24.4694 165.27 25.0458 166.204 25.7738C166.662 26.1234 167.029 26.5791 167.274 27.1021C167.519 27.6251 167.633 28.1998 167.609 28.777C167.609 30.089 167.129 31.0522 166.177 31.6475C165.051 32.2957 163.765 32.6099 162.469 32.5538C159.361 32.5473 156.303 31.7655 153.57 30.2786V34.8858C154.795 35.5129 156.095 35.9781 157.438 36.2699C159.089 36.6369 160.777 36.8162 162.469 36.8046C165.543 36.8046 167.989 36.1309 169.807 34.7835C171.625 33.4361 172.534 31.5565 172.534 29.1448C172.534 27.0163 171.819 25.3403 170.389 24.1167Z" fill="#E6EAED"></path><path d="M142.644 9.92349H130.105V14.3183H142.595C142.865 14.3178 143.132 14.3708 143.382 14.4743C143.632 14.5777 143.859 14.7296 144.05 14.9212C144.241 15.1128 144.393 15.3404 144.496 15.5909C144.6 15.8414 144.653 16.11 144.653 16.3812V20.3854H135.793C133.664 20.3854 131.623 21.2338 130.118 22.744C128.612 24.2542 127.765 26.3028 127.763 28.4395V28.7277C127.763 30.8041 128.561 32.8005 129.991 34.3009C131.42 35.8013 133.372 36.69 135.438 36.7818C135.551 36.7818 135.668 36.7818 135.793 36.7818C138.139 36.7828 140.39 35.849 142.051 34.1854C143.712 32.5218 144.648 30.2644 144.653 27.9087V31.6323C144.654 32.7966 145.115 33.9129 145.935 34.7362C146.755 35.5594 147.867 36.0224 149.027 36.0234V16.3319C149.027 14.6323 148.354 13.0023 147.157 11.8005C145.96 10.5987 144.337 9.92349 142.644 9.92349ZM144.653 25.7169C144.651 27.4913 143.947 29.1923 142.697 30.4459C141.446 31.6995 139.751 32.4031 137.983 32.4021C134.486 32.4021 132.152 31.1811 132.152 28.0755C132.151 27.5073 132.262 26.9446 132.478 26.4195C132.694 25.8944 133.011 25.4171 133.411 25.015C133.811 24.6129 134.286 24.2938 134.809 24.0759C135.331 23.858 135.891 23.7456 136.457 23.7451H144.653V25.7169Z" fill="#E6EAED"></path><path d="M184.412 36.2054H190.95V31.8106H184.461C183.919 31.8076 183.399 31.5888 183.017 31.2022C182.635 30.8155 182.421 30.2925 182.422 29.7478V18.516C182.422 17.9386 182.308 17.3668 182.088 16.8333C181.868 16.2999 181.545 15.8152 181.138 15.4071C180.731 14.9989 180.248 14.6753 179.717 14.4546C179.185 14.234 178.616 14.1207 178.04 14.1212V29.7971C178.04 31.4947 178.711 33.123 179.906 34.3244C181.101 35.5259 182.721 36.2024 184.412 36.2054Z" fill="#E6EAED"></path><path d="M114.552 36.0234L108.339 14.3184C107.977 13.0519 107.215 11.9381 106.167 11.1453C105.119 10.3524 103.842 9.92352 102.53 9.9235L109.997 36.0234H119.107L126.573 9.91971H122.019L114.552 36.0234Z" fill="#E6EAED"></path></g><defs><clipPath id="clip0_543_537"><rect width="217.373" height="46" fill="white"></rect></clipPath></defs></svg>